<svg width="100" height="100" viewBox="0 0 100 100" fill="none" xmlns="http://www.w3.org/2000/svg">
<rect width="100" height="100" rx="50" fill="#1F1F1F"/>
<path d="M65.8195 43.5469L73 39.4385L71.7451 37.2812C69.448 33.2038 66.9934 30.0841 64.2409 27.7444C59.9326 24.0811 55.0613 22.5259 49.7603 23.1251C46.051 23.5429 38.5522 27.7572 34.4123 30.2328L34.3893 30.2456C33.4325 30.6807 32.4858 31.2672 31.5751 31.9878C29.2448 33.8322 27.9126 36.1337 27.6182 38.8291C26.9945 44.5403 31.1859 50.8653 34.9082 55.7381L35.0728 55.9534L29.9826 58.9225L29.9725 58.9061L27 60.6392L27.161 60.9129C29.2448 64.4713 35.5862 75.2942 43.7611 76.8167C44.4171 76.9389 45.0767 77 45.7225 77C47.0142 77 48.3013 76.7501 49.5497 76.2575L49.7337 76.1836C50.2498 75.9692 50.7677 75.7102 51.2737 75.411L51.2884 75.4028L63.1258 69.4572C66.7772 67.4988 69.3946 64.2323 70.494 60.2598C71.5915 56.2873 71.0211 52.1542 68.8849 48.6204L65.8195 43.5469ZM42.6259 29.5642C46.2212 27.7033 48.752 26.6799 50.1495 26.5221C50.6288 26.4683 51.3068 26.3916 52.1376 26.3916C53.4936 26.3916 55.26 26.5941 57.2573 27.4224C61.1994 29.057 64.8628 32.6108 68.1443 37.9845L68.2731 38.1952L56.9233 44.688L56.801 44.4837C52.1302 36.6217 47.3693 31.7498 42.6516 30.002L42.1429 29.8141L42.6259 29.5642ZM31.047 39.1958C31.1418 38.3183 31.4049 37.5138 31.84 36.7685C32.2743 36.0251 32.8805 35.3428 33.6671 34.7107L33.6901 34.6943C34.3994 34.2464 35.1676 33.7748 35.9726 33.2922L36.0029 33.2767C37.3452 32.7057 38.6801 32.5561 40.0849 32.8179C41.7942 33.1363 43.5882 34.0703 45.4162 35.5946L45.6637 35.8007L40.7105 39.0645L40.704 39.0535L37.8355 40.9499C38.8862 42.4815 40.3508 44.2894 42.0371 46.3701L42.0472 46.3819C44.8955 49.8947 48.4402 54.2659 50.7824 58.4528L50.8938 58.6525L44.7115 62.4873L44.5781 62.3122C43.7133 61.1856 42.694 59.9405 41.6167 58.6224C36.8898 52.8474 30.4196 44.9362 31.047 39.1958ZM53.329 67.195C53.133 68.9519 52.2912 70.3968 50.7539 71.6127C50.3804 71.9073 50.0005 72.1737 49.6214 72.4036L49.6049 72.4136L48.3132 73.0621C47.4475 73.406 46.5873 73.5784 45.7087 73.5784C45.2764 73.5784 44.8403 73.5374 44.3978 73.4544C42.4584 73.0941 40.4391 71.9557 38.3517 70.0511C36.2642 68.1473 34.1087 65.4783 31.9026 62.0568L31.7673 61.846L37.2182 58.668L37.3489 58.8295C37.8438 59.4416 42.671 66.0192 43.5606 67.2333L52.3768 61.7658L52.4807 62.0412C53.2084 63.9833 53.4936 65.7173 53.329 67.195ZM67.1673 59.354C66.3219 62.4089 64.3117 64.9237 61.5048 66.437L56.5185 68.9409L56.616 68.4557C56.6786 68.1492 56.7246 67.8591 56.7568 67.5709C57.5903 60.0974 50.4623 51.305 44.7336 44.2411C44.1291 43.4958 43.5035 42.725 42.9378 42.0135L42.7749 41.8092L48.1458 38.2691L48.2856 38.4287C50.2452 40.659 52.282 43.5679 54.3373 47.0779L54.5074 47.368L54.5295 47.3543L55.6869 49.3429L62.8324 45.2554L65.9263 50.3745C67.5739 53.1019 68.0146 56.29 67.1673 59.354Z" fill="white"/>
</svg>
